<svg xmlns="http://www.w3.org/2000/svg" width="100" height="75" viewBox="0 0 100 75"><path d="M91.667,12.5H8.333A8.358,8.358,0,0,0,0,20.833V79.167A8.358,8.358,0,0,0,8.333,87.5H91.667a8.322,8.322,0,0,0,8.292-8.333L100,20.833A8.358,8.358,0,0,0,91.667,12.5ZM33.333,25a12.5,12.5,0,1,1-12.5,12.5A12.483,12.483,0,0,1,33.333,25Zm25,50h-50V70.833c0-8.333,16.667-12.917,25-12.917s25,4.583,25,12.917ZM74.375,58.333h6.833L87.5,66.667l-8.292,8.292A31.3,31.3,0,0,1,67.833,58.333a30.345,30.345,0,0,1,0-16.667A31.141,31.141,0,0,1,79.208,25.042L87.5,33.333l-6.292,8.333H74.375a24.539,24.539,0,0,0,0,16.667Z" transform="translate(0 -12.5)"/></svg>