<svg xmlns="http://www.w3.org/2000/svg" width="100" height="100" viewBox="0 0 100 100"><path d="M51.5,33.318A18.182,18.182,0,1,0,69.682,51.5,18.177,18.177,0,0,0,51.5,33.318ZM92.136,46.955A40.883,40.883,0,0,0,56.045,10.864V1.5H46.955v9.364A40.883,40.883,0,0,0,10.864,46.955H1.5v9.091h9.364A40.883,40.883,0,0,0,46.955,92.136V101.5h9.091V92.136A40.883,40.883,0,0,0,92.136,56.045H101.5V46.955ZM51.5,83.318A31.818,31.818,0,1,1,83.318,51.5,31.795,31.795,0,0,1,51.5,83.318Z" transform="translate(-1.5 -1.5)"/></svg>